<mxfile host="app.diagrams.net" agent="Mozilla/5.0 (Windows NT 10.0; Win64; x64; rv:130.0) Gecko/20100101 Firefox/130.0" version="24.7.14">
  <diagram id="Ht1M8jgEwFfnCIfOTk4-" name="component-AWS-overview">
    <mxGraphModel grid="1" page="1" gridSize="10" guides="1" tooltips="1" connect="1" arrows="1" fold="1" pageScale="1" pageWidth="1169" pageHeight="827" math="0" shadow="0">
      <root>
        <mxCell id="0" />
        <mxCell id="1" parent="0" />
        <mxCell id="UEzPUAAOIrF-is8g5C7q-74" value="&lt;div&gt;agr-aws&lt;/div&gt;" style="points=[[0,0],[0.25,0],[0.5,0],[0.75,0],[1,0],[1,0.25],[1,0.5],[1,0.75],[1,1],[0.75,1],[0.5,1],[0.25,1],[0,1],[0,0.75],[0,0.5],[0,0.25]];outlineConnect=0;gradientColor=none;html=1;whiteSpace=wrap;fontSize=12;fontStyle=0;shape=mxgraph.aws4.group;grIcon=mxgraph.aws4.group_aws_cloud_alt;strokeColor=#232F3E;fillColor=none;verticalAlign=top;align=left;spacingLeft=30;fontColor=#232F3E;dashed=0;labelBackgroundColor=#ffffff;container=1;pointerEvents=0;collapsible=0;recursiveResize=0;" vertex="1" parent="1">
          <mxGeometry x="110" y="80" width="523.38" height="540" as="geometry" />
        </mxCell>
        <mxCell id="F9HI7wHAPyrDihpn8WOm-37" value="" style="group" connectable="0" vertex="1" parent="UEzPUAAOIrF-is8g5C7q-74">
          <mxGeometry x="300" y="40" width="210" height="210" as="geometry" />
        </mxCell>
        <mxCell id="F9HI7wHAPyrDihpn8WOm-24" value="API" style="fillColor=none;strokeColor=#4D5C73;dashed=1;verticalAlign=top;fontStyle=0;fontColor=#5A6C86;whiteSpace=wrap;html=1;strokeWidth=2;" vertex="1" parent="F9HI7wHAPyrDihpn8WOm-37">
          <mxGeometry width="210" height="210" as="geometry" />
        </mxCell>
        <mxCell id="F9HI7wHAPyrDihpn8WOm-33" value="EC2 instance" style="points=[[0,0],[0.25,0],[0.5,0],[0.75,0],[1,0],[1,0.25],[1,0.5],[1,0.75],[1,1],[0.75,1],[0.5,1],[0.25,1],[0,1],[0,0.75],[0,0.5],[0,0.25]];outlineConnect=0;gradientColor=none;html=1;whiteSpace=wrap;fontSize=12;fontStyle=0;container=1;pointerEvents=0;collapsible=0;recursiveResize=0;shape=mxgraph.aws4.group;grIcon=mxgraph.aws4.group_ec2_instance_contents;strokeColor=#D86613;fillColor=none;verticalAlign=top;align=left;spacingLeft=30;fontColor=#D86613;dashed=0;" vertex="1" parent="F9HI7wHAPyrDihpn8WOm-37">
          <mxGeometry x="37" y="60" width="130" height="130" as="geometry" />
        </mxCell>
        <mxCell id="F9HI7wHAPyrDihpn8WOm-4" value="&lt;div&gt;Elastic Beanstalk&lt;/div&gt;" style="points=[[0,0],[0.25,0],[0.5,0],[0.75,0],[1,0],[1,0.25],[1,0.5],[1,0.75],[1,1],[0.75,1],[0.5,1],[0.25,1],[0,1],[0,0.75],[0,0.5],[0,0.25]];outlineConnect=0;gradientColor=none;html=1;whiteSpace=wrap;fontSize=12;fontStyle=0;container=1;pointerEvents=0;collapsible=0;recursiveResize=0;shape=mxgraph.aws4.group;grIcon=mxgraph.aws4.group_elastic_beanstalk;strokeColor=#D86613;fillColor=none;verticalAlign=top;align=left;spacingLeft=30;fontColor=#D86613;dashed=0;" vertex="1" parent="F9HI7wHAPyrDihpn8WOm-37">
          <mxGeometry x="17.00999999999999" y="28.680000000000007" width="171.32" height="171.32" as="geometry" />
        </mxCell>
        <mxCell id="F9HI7wHAPyrDihpn8WOm-32" value="NextFlow" style="shape=image;verticalLabelPosition=bottom;labelBackgroundColor=default;verticalAlign=top;aspect=fixed;imageAspect=0;image=data:image/png,iVBORw0KGgoAAAANSUhEUgAAAP4AAAD6CAYAAACBB/pHAAAAx3pUWHRSYXcgcHJvZmlsZSB0eXBlIGV4aWYAAHjabVBbDsMgDPvPKXYEgsPrOHSl0m6w4y9AqNpqrjDBRm4Ite/noFeHZyEJKccSo1NIkeKrFtlN1MHsZPDA0czju05HNcOrBN0xjzna/aXzGTC3qlW4BOW3GdvdKGL5+RFkP0LvyGuxW1CxIPhpsAVU6zSWnK5P2NbTFvJc1AlpZJ8hz7Mknd4eVIT3DQynDMTZAPoSQtWiKDOCXmT9KgLiUJJ1ogP5N6cF+gEMIlnt7VAKHQAAAYRpQ0NQSUNDIHByb2ZpbGUAAHicfZE9SMNAHMVfU6VaKh3sIOKQoTrZRaU4lioWwUJpK7TqYHLpFzQxJCkujoJrwcGPxaqDi7OuDq6CIPgB4uzgpOgiJf4vKbSI8eC4H+/uPe7eAUKrzlSzLwGommVkU0mxUFwRA68YRBhBxBGTmKmncwt5eI6ve/j4ehfjWd7n/hxDSslkgE8kTjDdsIjXieObls55nzjCqpJCfE48adAFiR+5Lrv8xrnisMAzI0Y+O0ccIRYrPSz3MKsaKvEMcVRRNcoXCi4rnLc4q/UG69yTvzBU0pZzXKc5hhQWkUYGImQ0UEMdFmK0aqSYyNJ+0sM/6vgz5JLJVQMjxzw2oEJy/OB/8Ltbszw95SaFkkD/i21/jAOBXaDdtO3vY9tunwD+Z+BK6/o3WsDsJ+nNrhY9AsLbwMV1V5P3gMsdYORJlwzJkfw0hXIZeD+jbyoCw7dAcNXtrbOP0wcgT10t3QAHh8BEhbLXPN490Nvbv2c6/f0ACfJy4/Zvn7sAAA12aVRYdFhNTDpjb20uYWRvYmUueG1wAAAAAAA8P3hwYWNrZXQgYmVnaW49Iu+7vyIgaWQ9Ilc1TTBNcENlaGlIenJlU3pOVGN6a2M5ZCI/Pgo8eDp4bXBtZXRhIHhtbG5zOng9ImFkb2JlOm5zOm1ldGEvIiB4OnhtcHRrPSJYTVAgQ29yZSA0LjQuMC1FeGl2MiI+CiA8cmRmOlJERiB4bWxuczpyZGY9Imh0dHA6Ly93d3cudzMub3JnLzE5OTkvMDIvMjItcmRmLXN5bnRheC1ucyMiPgogIDxyZGY6RGVzY3JpcHRpb24gcmRmOmFib3V0PSIiCiAgICB4bWxuczp4bXBNTT0iaHR0cDovL25zLmFkb2JlLmNvbS94YXAvMS4wL21tLyIKICAgIHhtbG5zOnN0RXZ0PSJodHRwOi8vbnMuYWRvYmUuY29tL3hhcC8xLjAvc1R5cGUvUmVzb3VyY2VFdmVudCMiCiAgICB4bWxuczpkYz0iaHR0cDovL3B1cmwub3JnL2RjL2VsZW1lbnRzLzEuMS8iCiAgICB4bWxuczpHSU1QPSJodHRwOi8vd3d3LmdpbXAub3JnL3htcC8iCiAgICB4bWxuczp0aWZmPSJodHRwOi8vbnMuYWRvYmUuY29tL3RpZmYvMS4wLyIKICAgIHhtbG5zOnhtcD0iaHR0cDovL25zLmFkb2JlLmNvbS94YXAvMS4wLyIKICAgeG1wTU06RG9jdW1lbnRJRD0iZ2ltcDpkb2NpZDpnaW1wOjNkNGU3ZGVkLTc2MWUtNDAyOC1iYzYxLTcxMmNiY2RiZmZmMiIKICAgeG1wTU06SW5zdGFuY2VJRD0ieG1wLmlpZDo1OWE0OWRkNS1iZjk4LTQ4YzEtYWYyNS02YjdjMjc1OTNmOTIiCiAgIHhtcE1NOk9yaWdpbmFsRG9jdW1lbnRJRD0ieG1wLmRpZDpkNmEzYTM0NC0yMmJkLTQ2ODktYjE2ZC01Mjg3M2RlMmQwNzIiCiAgIGRjOkZvcm1hdD0iaW1hZ2UvcG5nIgogICBHSU1QOkFQST0iMi4wIgogICBHSU1QOlBsYXRmb3JtPSJXaW5kb3dzIgogICBHSU1QOlRpbWVTdGFtcD0iMTcyNjM5Nzc4MDUxNzQ5MiIKICAgR0lNUDpWZXJzaW9uPSIyLjEwLjM2IgogICB0aWZmOk9yaWVudGF0aW9uPSIxIgogICB4bXA6Q3JlYXRvclRvb2w9IkdJTVAgMi4xMCIKICAgeG1wOk1ldGFkYXRhRGF0ZT0iMjAyNDowOToxNVQxMTo1NjoxNyswMTowMCIKICAgeG1wOk1vZGlmeURhdGU9IjIwMjQ6MDk6MTVUMTE6NTY6MTcrMDE6MDAiPgogICA8eG1wTU06SGlzdG9yeT4KICAgIDxyZGY6U2VxPgogICAgIDxyZGY6bGkKICAgICAgc3RFdnQ6YWN0aW9uPSJzYXZlZCIKICAgICAgc3RFdnQ6Y2hhbmdlZD0iLyIKICAgICAgc3RFdnQ6aW5zdGFuY2VJRD0ieG1wLmlpZDpkOTZiODQ1OC05NjBlLTRlZGItYjNmZS0yZWY5NDcxNzM4YWMiCiAgICAgIHN0RXZ0OnNvZnR3YXJlQWdlbnQ9IkdpbXAgMi4xMCAoV2luZG93cykiCiAgICAgIHN0RXZ0OndoZW49IjIwMjQtMDktMTVUMTE6NTY6MjAiLz4KICAgIDwvcmRmOlNlcT4KICAgPC94bXBNTTpIaXN0b3J5PgogIDwvcmRmOkRlc2NyaXB0aW9uPgogPC9yZGY6UkRGPgo8L3g6eG1wbWV0YT4KICAgICAgICAgICAgICAgICAgICAgICAgICAgICAgICAgICAgICAgICAgICAgICAgICAgICAgICAgICAgICAgICAgICAgICAgICAgICAgICAgICAgICAgICAgICAgICAgICAgIAogICAgICAgICAgICAgICAgICAgICAgICAgICAgICAgICAgICAgICAgICAgICAgICAgICAgICAgICAgICAgICAgICAgICAgICAgICAgICAgICAgICAgICAgICAgICAgICAgICAgCiAgICAgICAgICAgICAgICAgICAgICAgICAgICAgICAgICAgICAgICAgICAgICAgICAgICAgICAgICAgICAgICAgICAgICAgICAgICAgICAgICAgICAgICAgICAgICAgICAgICAKICAgICAgICAgICAgICAgICAgICAgICAgICAgICAgICAgICAgICAgICAgICAgICAgICAgICAgICAgICAgICAgICAgICAgICAgICAgICAgICAgICAgICAgICAgICAgICAgICAgIAogICAgICAgICAgICAgICAgICAgICAgICAgICAgICAgICAgICAgICAgICAgICAgICAgICAgICAgICAgICAgICAgICAgICAgICAgICAgICAgICAgICAgICAgICAgICAgICAgICAgCiAgICAgICAgICAgICAgICAgICAgICAgICAgICAgICAgICAgICAgICAgICAgICAgICAgICAgICAgICAgICAgICAgICAgICAgICAgICAgICAgICAgICAgICAgICAgICAgICAgICAKICAgICAgICAgICAgICAgICAgICAgICAgICAgICAgICAgICAgICAgICAgICAgICAgICAgICAgICAgICAgICAgICAgICAgICAgICAgICAgICAgICAgICAgICAgICAgICAgICAgIAogICAgICAgICAgICAgICAgICAgICAgICAgICAgICAgICAgICAgICAgICAgICAgICAgICAgICAgICAgICAgICAgICAgICAgICAgICAgICAgICAgICAgICAgICAgICAgICAgICAgCiAgICAgICAgICAgICAgICAgICAgICAgICAgICAgICAgICAgICAgICAgICAgICAgICAgICAgICAgICAgICAgICAgICAgICAgICAgICAgICAgICAgICAgICAgICAgICAgICAgICAKICAgICAgICAgICAgICAgICAgICAgICAgICAgICAgICAgICAgICAgICAgICAgICAgICAgICAgICAgICAgICAgICAgICAgICAgICAgICAgICAgICAgICAgICAgICAgICAgICAgIAogICAgICAgICAgICAgICAgICAgICAgICAgICAgICAgICAgICAgICAgICAgICAgICAgICAgICAgICAgICAgICAgICAgICAgICAgICAgICAgICAgICAgICAgICAgICAgICAgICAgCiAgICAgICAgICAgICAgICAgICAgICAgICAgICAgICAgICAgICAgICAgICAgICAgICAgICAgICAgICAgICAgICAgICAgICAgICAgICAgICAgICAgICAgICAgICAgICAgICAgICAKICAgICAgICAgICAgICAgICAgICAgICAgICAgICAgICAgICAgICAgICAgICAgICAgICAgICAgICAgICAgICAgICAgICAgICAgICAgICAgICAgICAgICAgICAgICAgICAgICAgIAogICAgICAgICAgICAgICAgICAgICAgICAgICAgICAgICAgICAgICAgICAgICAgICAgICAgICAgICAgICAgICAgICAgICAgICAgICAgICAgICAgICAgICAgICAgICAgICAgICAgCiAgICAgICAgICAgICAgICAgICAgICAgICAgICAgICAgICAgICAgICAgICAgICAgICAgICAgICAgICAgICAgICAgICAgICAgICAgICAgICAgICAgICAgICAgICAgICAgICAgICAKICAgICAgICAgICAgICAgICAgICAgICAgICAgICAgICAgICAgICAgICAgICAgICAgICAgICAgICAgICAgICAgICAgICAgICAgICAgICAgICAgICAgICAgICAgICAgICAgICAgIAogICAgICAgICAgICAgICAgICAgICAgICAgICAgICAgICAgICAgICAgICAgICAgICAgICAgICAgICAgICAgICAgICAgICAgICAgICAgICAgICAgICAgICAgICAgICAgICAgICAgCiAgICAgICAgICAgICAgICAgICAgICAgICAgICAgICAgICAgICAgICAgICAgICAgICAgICAgICAgICAgICAgICAgICAgICAgICAgICAgICAgICAgICAgICAgICAgICAgICAgICAKICAgICAgICAgICAgICAgICAgICAgICAgICAgICAgICAgICAgICAgICAgICAgICAgICAgICAgICAgICAgICAgICAgICAgICAgICAgICAgICAgICAgICAgICAgICAgICAgICAgIAogICAgICAgICAgICAgICAgICAgICAgICAgICAgICAgICAgICAgICAgICAgICAgICAgICAgICAgICAgICAgICAgICAgICAgICAgICAgICAgICAgICAgICAgICAgICAgICAgICAgCiAgICAgICAgICAgICAgICAgICAgICAgICAgIAo8P3hwYWNrZXQgZW5kPSJ3Ij8+PiQaiAAAAAZiS0dEAAAAAAAA+UO7fwAAAAlwSFlzAAALEwAACxMBAJqcGAAAAAd0SU1FB+gJDwo4FGNirDgAABXFSURBVHja7Z1dXhNZ18XXPhWvELreEXQxAuMISI3AOAITkb4FRgCMQLhVMGEE4ggqjMD0CKyeQTXg1UOd/V6kUFRs8p0656x150/QpGr/z9p7ny9ZH5wpgEKAQiE5AABaiJgc1v5rYIYACgB5kXarv6coatWKs14CoFnCxgIkMOYPVRsDkggQAxorEAOIr1vbcv93G3f/xugHNLn7C1ULCFDCfvvh9cEZBDJUoBCRIaz9pxoYhkXaLfgqKGrucMcAmha2CWP+VLWJAE0FkvtsKgCo/fYnfeTfbUz6QRTaHA0M2ro/MGwMPgwVmovi0sAMi7Q74GujqOkgV8GWjNw8+Q6f/Q75jJIq1V+QZCAiQ2PxiVkBRf0KegnbFmOeQW1bgWRR/9fPqf6CwX9gIFC9NDADZgRUsI5u8GLRoNcM/B+UAxhEaj4VafeCYUH57OoQeYVRmRyv4nPUCfz7KgBccBCgfIHdwnZU5AWgrTp8prqC/1AmcM5ygHIM+FYperBKZ3cZ/B8HAcVRNOoJ5AwtqoawN63BC1W7VzfY/wv8Rs2fawJBr4TF+uCszyyAqhHw7VJ0t4RtQd37/HV3/N9mAdfpdp/hRy29djfYrbu7+5DqswygCHyAqf44ZUC+cdnrG4tzDgDUnIFPSrEHJWwH6td3c9nxf8kARAwHAGpuwAPo+PKdfnZ849H7SlTtYSk2W8/OOgxfapqUfuOy97YU+8Un6H13/Ad7AGwCUiHU8CE7/oM9gPXB2Zdq3zJF/aL17KxTiv2iag99hf4hNQL4jkkp9ku1DuCI9T9VufzdKrtWiN/fBPRdO6XYbCM722PYs44vxWahQh8a+ACQqOAt0/9Q0/rTthX7uarlg5YJ9HsnpdgvG5e9A+IQhsuvD84+QuTjMvfAE/yaStUe0v39d/lqeq7Np0Hw6f6B1PIQ+YiAuvUEfyr3/5DR/b2AvsVanuBPgn9rtPLvlGmho9q47O2WYjPW8gR/4tQfIh+Z+ruX2q8PPmSq9phPg+Az9Q9Aa9m7phX7OeR5eYK/gNSf8Nc7tTcSMbUn+PNP/Uuxn7nir5bQv61Se3btJ1SDj2C8ElIFbzcue39cbXWP+DhWX8+Xoh9VLVN7Ov5y6v6Ny95bPomVQp+wnif4q4B/b2Pw4XN1HRK1fOhZzxP8FcEPbZZiP7PptzytZe+apdjPhJ7gr1oJO/7L0frlh1dGogxs4hF8wh8O9FDtE3qCT/jDg54i+ISf0FMEn/ATeorgE35CTxF8wu8S9Nlpm9ATfMIfkNayd02I9PgkCL7z8FvRj1zh97jirJdwnp7ge6NqhR9d7BHorVhCT/C9U5sbe34Lfcy19wTfX+dXu8f9/L+qFNsj9ATfb/gFb59m71t8EiNVZxryUNMVqRGp2bzFbQIAApPI6JqpZ4DEgDZZe81PIuZjnPWeh35x58Zlb7e6nZaaV2wBuUJyQHNR/KNArrB5A438Nz//aB2W3OI2MTCt0YCAFgeDmZRHap4XabcItK5PSrGfGUOzQo6BKP62sMMGGsNJ40mm+Y/XsndNg6gJwQsOBFOpf93a7oYIPZt5U6kQlXOFDiOYi3mYhszjUz3N3rcE0hGRLb7UMR+8Yv8q3Q7qDPj1wdlH1vVjR8hAtbxU6MXX9K/hArKG+YqDwPiyWj5fxEutaV1/wLr+8RTeqj1voNFfdB9IFvmPr2dnHYi84sGIYdf7VV3/ha/792m8RXlxk+4MljjILOnFozwcDQLUDy9AzPHVVnffY+hjy7PyHgRe1Z400DhexcAvSw6C5Ba3HSPmFQPhnlRfXqdvLjxN8d/y1tofszwojq7T7f6Ky4rVpH4cAH4c/auUP/fpS41KPXCvQo2AXyn4Pw4A5Z6I7DIuZHDdep36VNdz6m40qFu1R1/TnVrN4Kx0yW6RdvOb9M1epGYTqueB5/stn9bzl2IPAoe+ULVHkZrNukG/csf/NTU8bYvI24ADpojUbLre5WeKL4NIpVvn0k3q+KGeZu8PRcxBoFHj9Kq+wLv4BVS7LjRqa7k77ybdOYzUbAqQBxg8HZd38VmD3UChv4jUbLoyOyN1/4CBun9+3dredNDtQ1yoU8vmnZOO/7P7Q/VlYO6fbGRnh6596FJsUCcNCWQYqXnuGvROOP59NwlsesipRl9oDT1VPWkgOnS1EevMCTxF2s2vWtubqnoSSGzFLjmoCIIpx6za/Zv0zZ7Lsy/OHb11k77ZU7VHgcSYE42+jcteKHP2+WhH5Y7z26mdPHPvru4H4P0pNiJRrZ00znoJ1HZCgD5Sk/qyjdrZwzav0zcXVsvU/6afturs+iFM31VNvNSnvRROn7L7Nf1raNR4D39dXT/OeonvO+8EMjQqqW8bqJw/XrtIu7n/8NfT9Uuxnjf0ZFBB711JKb58Ef+n++q1e8/3xToCGV61Xj/39ft5c6GG/85fL9f32e3v0nufcxmvbtK5gx+edvvrUutX1393PGUi9zW99xb8O/itlp6O1vVwfWvg69mJedW9936a2Mu7876mfw2h8PLCilq4vp/z9rlvU3bBgQ8A1+l2388VftqqUu2VaD076/jYQLVavgzpTkOvb8utVvh5d6SXha5s7tzHNfmq9iiUi02CAB8AIkR7vnX6VfRVnPWWfl9hnPVavrm9qp7cpDuHCEzeg1+k3cLDTn9ssfw6uxTr22nIeQNRcNAHAX4Ff249q/dV5MWS3T6BXxdeFqF08IMFHwCqrZQe3Vaz3Km9VWQYC/0+ao9CauYFCz4ARGq6PtX7BtHyHFi8mrvv+7CnnuBPUO9btd7M7y+ryedZUy+P1BwhcJnQvnB1FbEvKX8MYOHpfinWH7dXBJ3iBwv+XcoPT7r8pegyOu1eNPUEMqzLpZUEf3UpvyfpnjYXme6vZ6ftKrNwP9hVXhL5gMEHRl1+gfiwWmuxc/pLnjZcoPpM8Qk+AMBque+F5y8WTh/SfDb0CP53jRp9MmC673maz4Yewf8lJrT0wQkW0933I83P2dAj+N66fil27pDKEqYKl+H2xJzg++z6c63F17J3TQ8W7dDtCb73rh/Pc+1+hIhuT/Dp+m68TNOc2/Nwv76n2xP8MFx/XrCOZgjUdccfMKoJ/lgS1U+O5y3zmtZruv4uOW9P8CdJlftwew1/fIvbmaG1sG67veonztsT/LFVpN1CVM7dfqGz1/kqsuW02yNibU/wJ3W70uktuzqX2tzp+j4v0u4FI5ngTyTnm3wzuvVa9s71+n7AKCb407GjeulynT/LhRuuz9+r2nNGMMGftk52ukYsZ2jOqeCZy2l+dcISRfAnV5F2c5cP5RTI1Om6zvC7TPMJvvtScXZOX2GnTvUF6iz4TPMJ/sxyursvMlW67nhjr2CaT/BnVhVEri7mSaZZwWdgEmdfmNsNWYJfM+t0+Uy+iSEWh+t78eIkJYJfj2ByeO1+CTsxxC539A0MwSf486rzrbOOL1MdoiGunq9XFGl3yIgl+HNRAw1ng0kFf07xW46m+kLoCf4cbSTtFupoUE1ar1fNQCcdXxR/M1oJ/nwfkKNBpdCJIP4f/pe4G8Rs7BH8+SPkaho5EchP8MTl8/NzxinBn7dzOhtUk2zWKWdY7VeDkow1PsGfryJELgfV2C4ujh6lLWzsEfwFuYnLaeQEMLs5laeeXHdO8GvpKm7WkCXsJDCzo0/wqR9dRZwEXyaAebp5/1q8HTo+wV+Yq/zje43v7qDMjj7BX2Cp7+iQFU8AkKM1viX4U6jBRzBWeDl9Is9YDqC4VMHQPfCZ6lMURVEURVEURVEURVEURVEURVEURVEURVEURVEUVXcJH8HjirNesxS769zLFVNcbXX3x/nZjezDMURfOPdyFCdX6fYxo3Qyca3+mOwD6LgHxWTnBaqDp/AIJGF4Ti7uzhtDrp5HN9npNG5udlHRPxihBH9R9VAIruLq1mM6PsFfWHA5eqDF+CcEu3t2nRJ8gr+odNLNyyRF5V/fU32EkY0R/BXVyq46/tgwW4dPspnk/gCK4E9Q47t5meQk59E9wROXT7JpMkoJ/ly1lr1zNqgmOY/O5fsDrMO3ABH82j4g42xQNdCYyMVdPVfQ1R4Mwa91mm9aDn/8iUC2kMLNdyRM9Qk+3eQuey/S7kQgO3wleDPOejGjleDPM6wcdZNpLpN092bgW9zS9Qn+fFQ19tx0ErX/TvwrDt8dYGAIPsGfjyJEztb301wfbVE6e+W0irxgxBL8edX3Ww474MQQP8GT3OG3Rccn+HNTy+HPPjHERdotHL4qLH6avW8xZAn+bFGU9Vpw+LbZIu1OlbYrMHQ3mKM2I5fgz6RS7KuQ6vtvv6vi6pXgUBdPECL4dYPH3TRfocNV/G4NlHDDDsGfKc1Xh7d7ygwLcSKYgcvvzsJ2GMEEP7g0f/RSp4e32qzj7E49FdliBBP84NJ8jJbqzpquO+z62mJ3n+BPrPXstK1On+oiM9foorh0O6jZ3Sf4E0e9OJ3mi+rM0FpYlxt8UNFX3LRD8MdW1RF22i0s7MxpegONoct1PoCYTT6CP7ZKsQeuf4cK2tmaBGm3mEfJsFrX59p9gj9umux2Uw+ADCbdg/8fJcMnt58Fm3wEfwytZ2cddfyo5nnC6nqdDwAi0QEjm+A/EiQ4cP9lzm/xzU26M3C8zqfrE3z/3R5APof5+58yCPnk+rul6xN8r90eC1h0o7AX7j8Wuj7B99ftEamZuztHiDxI9+n6Dz6TkL98nPUSKzbzAPziurX9fwsZGAcfMkCdd0xVm1Z9Cyp0xy/FHqgfly4uLCV3f1qvCnSJ3hJ3gn+3Sq/jw3dZRJr/PUBM34d0X6HNjexsj8gHDr4V/ejJVymKtLswx/dhFd83+AUHXMMfMPijhp43p7IuvvOu9sSXRK8U2yP2AYIfZ73Ek+m7EZNqzxdeSnjS3a/U5vRegOB71NADgHwZneoi7Raicu5LDIiYXugpf1Dgb1z2duFJQw8ARLE0GC3KC49CIQk95Q8G/DjrJar20K+XZ/rL+r9GmYUMPHp87ZC7/CYQ6GMrNoPDF2Q8UNx/qg7GXGKG4cec/rdHOOryJwTfU1kDn+r6UdBCj1eUYRQePca4FJuFWO97D/7GZe9A1fqW0uWrWH7qW5PvXr3/luB7pLXsXdO3ur6y+6PVBYwcexgqnY3LXlAbebzdpOPRBpxf3P66tb25yg/gy8adX2mQzvXW6/MQwDeE3jGzX8KCncc/Q3nkJQ2q/bXsXZPguwl97Cv0ANBAo7/qz+Dh1N53ICTKQuj0G/+gV2+hB9Bf9hRecK7/vdOfEHynoFdvU7VITW1g89n1Mer0ew2/IfR0e7p+ePAbQk+3p+uHB79xHPokBOhV9aRubh+I63+D37duv3Ebeus99ADyBqLaLpoJwPUBIDESZevZaZvgr1Br2bumz1N292XV1tbtA3J9AIgh8tGXFX7OrdzbuOztqtpjhKGVr9IbV+vZaR8ir0J4KSLm+Gqru0/wl5Pax9bAxw03/2Gl6F6n231X3k8p9gt82vr8yKAcqUnrno05nep/a+KFBD1w4Qr0wN3OPZwE9H6SUqyzdX/twd+47O2WYj8H0MT7QZEa51LJq3T7UIA8JPhdrftrm+pXqWMPQBuBSdUe3aQ7hy5+9qfZ+5aIyRCenEr9a+n469lpu6oX2yEGUAMNZ5uXN+nOAKrnAb63pBT7xRX3r5Xjx1kvKUV7Xu71Htvu3WnoPZKthdToe8j99xd5w5EX4Fcd+92qeRfyeef969Z214cvspa93zNiQr+osh+pOapj+r9y8Kt5+cPAgXeuRhyrZPP1pJ5JIRNzbCxqtRBrZeCvZ2cdEf9Ovw05xX+4dLOfOaiPBnYR0zcW53UYAITA14B51ZOb9I2XaxTWs9M2RD7yLddrAFgK+KzhH03xn4+uo/ZTT7PTYxHZ5auuTw9AFgx8yxq8ULUdAv+wIjWbPtX1vx34xX5mlvdbDAdQPV9mqScLeMmJNXgFtR2+6MdSfHcX6kyqtexd00j0mW/9v7M/AINIzXmRdge1Bz/Oes2Rs2uLXdzx0zxfpu7Gh59TfHUZBGRK0OMSti3GPGMaP3Vdn/qe4j+kkLbvzlEFgAEUnyKYYZF2hwsHv7pQsGlhmyp4JkCLKfxsL7Fq5uUhfnnW+/MbCETxt4EZAMgnjSe5d5BgUsImAiQq+FMgTUBjvqD5yqrd/5ruHIf8DDi/v6jBQIaAFqL4W4E8grkbDH4ZGGR9cKZ8ZstRSM28xxTwLr6V6Lq1/UN2b/hIlqYLQv9dN+nOwKrd55NYjQj+cpRHarp8DD/qa7pzrKonfBIE31foU59X5s3m/G/2AFzwSRB8H6HP+Sh+r0hNVyBDPgmC74MKq+VLQj/Gg0q7hVF5Gdh5fQTfS6l2v6Z/0cXGhz83alLCT/Adhh7d6/QN61bCT/DDgt6vAzUIP8GnCD3hJ/gUoSf8BJ/QU4Sf4IcQm4Se8BP8wGLSapkSesJP8MNRHql5znn6pcP/nCv8CP4qoecy3NXAX1y1Xj/nxh6Cv2TJIOTTc+qim/TNnqo94pMg+AuXqp5ct15zl11t4N85rPbz830Q/MVkmFbtvq833bisr+nOcaTmOZt+BH/u9bzVMg39jLya1/25UZMCMuDTIPhzq+fZuXcD/uvW65R1P8GfSVbtPut5N+t+qHJfP8GfPLVXtUztHdZ1+uaCqT/BH1uqehKpeX6T7jBgmPoT/BDiBKovb9I3e0zt/Uv9IzWbTP0J/s+6iNRs8rQcv93/qrW9Sfcn+ACQQ/XldWv7JV2e7k/wA6rl6fLhur9Vux/6ABAQ+DJQtSlreeprunNs1KRQPQ/1GYRwaWYBxT73zVMPKc56iRWb+X4rdEiXZhaq9mjUvCP01H+n/1B0Q0r/vXR8VT1pIDpkSk9NqvXsrCOCA98yAN8dvx+p2WQdT00NSLrdN2pSVXvkcwbgi+P3IzVHPCCDmnf9f4vbjhHzyvUM4GfHdxn8QtWeNNA4prtTCx4A4hK27XIJ4AP4BJ5iDyAc8GWgWh5xEw1VBz3N3rcE0oHIK4K/IHdX6AUPxKDq2gcoYVt1zwJcAL8AZEh3p1zNAkRkq26DwM/gN+qUyovqJwPTZ+1OuajKqAajXsBpG0AbIi8AxHX7rKsEvwBkCNXzCOaCsFM+qdoEdnF/EKhTJrBU8AUyhOLSorxooDEk7FRog8DT7H3LwLRUZAvQlpfgC5BD5ZNCh3R1ivqxHIizXnyL26ZB1FbBs2UOBI15Qq7AUBSXFnZIR6eoR2rdER/fBoJ7GUFTBVsCSRTaXIgpT9rV/w64/ANoTsgpanH6nhWYJiCJCp4JEE86IPyuq1/IqNlWKFAAmovKv4AWCuSAFhGiIdfCU9Tqs4J7g0Jyi9tEILFAmoDEKvonIPHIpDXR0YzCL7MK/w9VjGqSdw5z5QAAAABJRU5ErkJggg==;" vertex="1" parent="F9HI7wHAPyrDihpn8WOm-4">
          <mxGeometry x="89.99" y="69.02" width="41.63" height="40.98" as="geometry" />
        </mxCell>
        <mxCell id="F9HI7wHAPyrDihpn8WOm-6" value="Docker&lt;br&gt;compose" style="shape=image;html=1;verticalAlign=top;verticalLabelPosition=bottom;labelBackgroundColor=#ffffff;imageAspect=0;aspect=fixed;image=https://cdn0.iconfinder.com/data/icons/social-media-2104/24/social_media_social_media_logo_docker-128.png" vertex="1" parent="F9HI7wHAPyrDihpn8WOm-37">
          <mxGeometry x="47" y="94.09" width="51.83" height="51.83" as="geometry" />
        </mxCell>
        <mxCell id="F9HI7wHAPyrDihpn8WOm-45" style="edgeStyle=orthogonalEdgeStyle;rounded=0;orthogonalLoop=1;jettySize=auto;html=1;entryX=1;entryY=0.5;entryDx=0;entryDy=0;startArrow=none;startFill=0;" edge="1" parent="UEzPUAAOIrF-is8g5C7q-74" target="F9HI7wHAPyrDihpn8WOm-59">
          <mxGeometry relative="1" as="geometry">
            <mxPoint x="428" y="200" as="sourcePoint" />
            <mxPoint x="400" y="400" as="targetPoint" />
            <Array as="points">
              <mxPoint x="428" y="400" />
            </Array>
          </mxGeometry>
        </mxCell>
        <mxCell id="F9HI7wHAPyrDihpn8WOm-54" style="edgeStyle=orthogonalEdgeStyle;rounded=0;orthogonalLoop=1;jettySize=auto;html=1;exitX=1;exitY=0.5;exitDx=0;exitDy=0;startArrow=none;startFill=0;entryX=0.017;entryY=0.533;entryDx=0;entryDy=0;entryPerimeter=0;" edge="1" parent="UEzPUAAOIrF-is8g5C7q-74" target="F9HI7wHAPyrDihpn8WOm-4">
          <mxGeometry relative="1" as="geometry">
            <mxPoint x="187" y="159.66000000000005" as="sourcePoint" />
            <mxPoint x="317.01" y="149.01087719298246" as="targetPoint" />
            <Array as="points" />
          </mxGeometry>
        </mxCell>
        <mxCell id="F9HI7wHAPyrDihpn8WOm-56" value="REST" style="edgeLabel;html=1;align=center;verticalAlign=middle;resizable=0;points=[];" connectable="0" vertex="1" parent="F9HI7wHAPyrDihpn8WOm-54">
          <mxGeometry x="0.2484" y="-1" relative="1" as="geometry">
            <mxPoint x="-8" y="10" as="offset" />
          </mxGeometry>
        </mxCell>
        <mxCell id="F9HI7wHAPyrDihpn8WOm-65" value="" style="group" connectable="0" vertex="1" parent="UEzPUAAOIrF-is8g5C7q-74">
          <mxGeometry x="140" y="280" width="240" height="240" as="geometry" />
        </mxCell>
        <mxCell id="F9HI7wHAPyrDihpn8WOm-21" value="AWS Batch" style="points=[[0,0],[0.25,0],[0.5,0],[0.75,0],[1,0],[1,0.25],[1,0.5],[1,0.75],[1,1],[0.75,1],[0.5,1],[0.25,1],[0,1],[0,0.75],[0,0.5],[0,0.25]];outlineConnect=0;gradientColor=none;html=1;whiteSpace=wrap;fontSize=12;fontStyle=0;container=1;pointerEvents=0;collapsible=0;recursiveResize=0;shape=mxgraph.aws4.group;grIcon=mxgraph.aws4.group_elastic_beanstalk;strokeColor=#D86613;fillColor=none;verticalAlign=top;align=left;spacingLeft=30;fontColor=#D86613;dashed=0;" vertex="1" parent="F9HI7wHAPyrDihpn8WOm-65">
          <mxGeometry x="20" y="30" width="200" height="200" as="geometry" />
        </mxCell>
        <mxCell id="F9HI7wHAPyrDihpn8WOm-20" value="" style="sketch=0;points=[[0,0,0],[0.25,0,0],[0.5,0,0],[0.75,0,0],[1,0,0],[0,1,0],[0.25,1,0],[0.5,1,0],[0.75,1,0],[1,1,0],[0,0.25,0],[0,0.5,0],[0,0.75,0],[1,0.25,0],[1,0.5,0],[1,0.75,0]];outlineConnect=0;fontColor=#232F3E;fillColor=#ED7100;strokeColor=#ffffff;dashed=0;verticalLabelPosition=bottom;verticalAlign=top;align=center;html=1;fontSize=12;fontStyle=0;aspect=fixed;shape=mxgraph.aws4.resourceIcon;resIcon=mxgraph.aws4.batch;" vertex="1" parent="F9HI7wHAPyrDihpn8WOm-21">
          <mxGeometry width="25" height="25" as="geometry" />
        </mxCell>
        <mxCell id="F9HI7wHAPyrDihpn8WOm-49" value="ECS managed environment" style="points=[[0,0],[0.25,0],[0.5,0],[0.75,0],[1,0],[1,0.25],[1,0.5],[1,0.75],[1,1],[0.75,1],[0.5,1],[0.25,1],[0,1],[0,0.75],[0,0.5],[0,0.25]];outlineConnect=0;gradientColor=none;html=1;whiteSpace=wrap;fontSize=12;fontStyle=0;container=1;pointerEvents=0;collapsible=0;recursiveResize=0;shape=mxgraph.aws4.groupCenter;grIcon=mxgraph.aws4.group_auto_scaling_group;grStroke=1;strokeColor=#D86613;fillColor=none;verticalAlign=top;align=center;fontColor=#D86613;dashed=1;spacingTop=25;" vertex="1" parent="F9HI7wHAPyrDihpn8WOm-65">
          <mxGeometry x="40" y="60" width="160" height="160" as="geometry" />
        </mxCell>
        <mxCell id="F9HI7wHAPyrDihpn8WOm-53" value="EC2 instances" style="sketch=0;outlineConnect=0;fontColor=#232F3E;gradientColor=none;fillColor=#ED7100;strokeColor=none;dashed=0;verticalLabelPosition=bottom;verticalAlign=top;align=center;html=1;fontSize=12;fontStyle=0;aspect=fixed;pointerEvents=1;shape=mxgraph.aws4.instances;" vertex="1" parent="F9HI7wHAPyrDihpn8WOm-49">
          <mxGeometry x="56" y="56" width="48" height="48" as="geometry" />
        </mxCell>
        <mxCell id="F9HI7wHAPyrDihpn8WOm-59" value="Pipeline" style="fillColor=none;strokeColor=#4D5C73;dashed=1;verticalAlign=top;fontStyle=0;fontColor=#5A6C86;whiteSpace=wrap;html=1;strokeWidth=2;" vertex="1" parent="F9HI7wHAPyrDihpn8WOm-65">
          <mxGeometry width="240" height="240" as="geometry" />
        </mxCell>
        <mxCell id="F9HI7wHAPyrDihpn8WOm-39" value="Web UI" style="fillColor=none;strokeColor=#4D5C73;dashed=1;verticalAlign=top;fontStyle=0;fontColor=#5A6C86;whiteSpace=wrap;html=1;strokeWidth=2;" vertex="1" parent="UEzPUAAOIrF-is8g5C7q-74">
          <mxGeometry x="20" y="40" width="210" height="210" as="geometry" />
        </mxCell>
        <mxCell id="F9HI7wHAPyrDihpn8WOm-40" value="EC2 instance" style="points=[[0,0],[0.25,0],[0.5,0],[0.75,0],[1,0],[1,0.25],[1,0.5],[1,0.75],[1,1],[0.75,1],[0.5,1],[0.25,1],[0,1],[0,0.75],[0,0.5],[0,0.25]];outlineConnect=0;gradientColor=none;html=1;whiteSpace=wrap;fontSize=12;fontStyle=0;container=1;pointerEvents=0;collapsible=0;recursiveResize=0;shape=mxgraph.aws4.group;grIcon=mxgraph.aws4.group_ec2_instance_contents;strokeColor=#D86613;fillColor=none;verticalAlign=top;align=left;spacingLeft=30;fontColor=#D86613;dashed=0;" vertex="1" parent="UEzPUAAOIrF-is8g5C7q-74">
          <mxGeometry x="57" y="100" width="130" height="130" as="geometry" />
        </mxCell>
        <mxCell id="F9HI7wHAPyrDihpn8WOm-41" value="&lt;div&gt;Elastic Beanstalk&lt;/div&gt;" style="points=[[0,0],[0.25,0],[0.5,0],[0.75,0],[1,0],[1,0.25],[1,0.5],[1,0.75],[1,1],[0.75,1],[0.5,1],[0.25,1],[0,1],[0,0.75],[0,0.5],[0,0.25]];outlineConnect=0;gradientColor=none;html=1;whiteSpace=wrap;fontSize=12;fontStyle=0;container=1;pointerEvents=0;collapsible=0;recursiveResize=0;shape=mxgraph.aws4.group;grIcon=mxgraph.aws4.group_elastic_beanstalk;strokeColor=#D86613;fillColor=none;verticalAlign=top;align=left;spacingLeft=30;fontColor=#D86613;dashed=0;" vertex="1" parent="UEzPUAAOIrF-is8g5C7q-74">
          <mxGeometry x="37.00999999999999" y="68.68" width="171.32" height="171.32" as="geometry" />
        </mxCell>
        <mxCell id="F9HI7wHAPyrDihpn8WOm-43" value="Docker&lt;br&gt;compose" style="shape=image;html=1;verticalAlign=top;verticalLabelPosition=bottom;labelBackgroundColor=#ffffff;imageAspect=0;aspect=fixed;image=https://cdn0.iconfinder.com/data/icons/social-media-2104/24/social_media_social_media_logo_docker-128.png" vertex="1" parent="F9HI7wHAPyrDihpn8WOm-41">
          <mxGeometry x="32.99000000000001" y="65.41" width="51.83" height="51.83" as="geometry" />
        </mxCell>
        <mxCell id="F9HI7wHAPyrDihpn8WOm-66" value="Next.js" style="shape=image;verticalLabelPosition=bottom;labelBackgroundColor=default;verticalAlign=top;aspect=fixed;imageAspect=0;image=data:image/x-icon,AAABAAMAMDAAAAEAIACoJQAANgAAACAgAAABACAAqBAAAN4lAAAQEAAAAQAgAGgEAACGNgAAKAAAADAAAABgAAAAAQAgAAAAAAAAJAAAAAAAAAAAAAAAAAAAAAAAAAAAAAAAAAAAAAAAAAAAAAAAAAAAAAAAAAAAAAAAAAAAAAAAAAAAAAAAAAAAAAAAAAAAAAAAAAAAAAAAAAAAAAAAAAANAAAANwAAAG8AAACkAAAAzQAAAOcAAAD2AAAA/gAAAP4AAAD2AAAA5wAAAM0AAACkAAAAbwAAADcAAAANAAAAAAAAAAAAAAAAAAAAAAAAAAAAAAAAAAAAAAAAAAAAAAAAAAAAAAAAAAAAAAAAAAAAAAAAAAAAAAAAAAAAAAAAAAAAAAAAAAAAAAAAAAAAAAAAAAAAAAAAAAAAAAAAAAAAAAAAAAAAAAAAAAAAAAAAAAAAAAADAAAAKAAAAHMAAAC8AAAA6gAAAPwAAAD/AAAA/wAAAP8AAAD/AAAA/wAAAP8AAAD/AAAA/wAAAP8AAAD/AAAA/AAAAOoAAAC8AAAAcwAAACgAAAADAAAAAAAAAAAAAAAAAAAAAAAAAAAAAAAAAAAAAAAAAAAAAAAAAAAAAAAAAAAAAAAAAAAAAAAAAAAAAAAAAAAAAAAAAAAAAAAAAAAAAAAAAAAAAAAAAAAAAAAAAAAAAAAAAAAAAgAAAC4AAACSAAAA4gAAAP4AAAD/AAAA/wAAAP8AAAD/AAAA/wAAAP8AAAD/AAAA/wAAAP8AAAD/AAAA/wAAAP8AAAD/AAAA/wAAAP8AAAD/AAAA/gAAAOMAAACRAAAALgAAAAIAAAAAAAAAAAAAAAAAAAAAAAAAAAAAAAAAAAAAAAAAAAAAAAAAAAAAAAAAAAAAAAAAAAAAAAAAAAAAAAAAAAAAAAAAAAAAAAAAAAAAAAAAAAAAAAAAAAAWAAAAfQAAAOMAAAD/AAAA/wAAAP8AAAD/AAAA/wAAAP8AAAD/AAAA/wAAAP8AAAD/AAAA/wAAAP8AAAD/AAAA/wAAAP8AAAD/AAAA/wAAAP8AAAD/AAAA/wAAAP8AAAD/AAAA4wAAAHwAAAAWAAAAAAAAAAAAAAAAAAAAAAAAAAAAAAAAAAAAAAAAAAAAAAAAAAAAAAAAAAAAAAAAAAAAAAAAAAAAAAAAAAAAAAAAAAAAAAAAAAAAAQAAADsAAADAAAAA/QAAAP8AAAD/AAAA/wAAAP8AAAD/AAAA/wAAAP8AAAD/AAAA/wAAAP8AAAD/AAAA/wAAAP8AAAD/AAAA/wAAAP8AAAD/AAAA/wAAAP8AAAD/AAAA/wAAAP8AAAD/AAAA/wICAv0EBAS/AQEBOwAAAAEAAAAAAAAAAAAAAAAAAAAAAAAAAAAAAAAAAAAAAAAAAAAAAAAAAAAAAAAAAAAAAAAAAAAAAAAAAAAAAAAAAAAEAAAAXgAAAOMAAAD/AAAA/wAAAP8AAAD/AAAA/wAAAP8AAAD/AAAA/wAAAP8AAAD/AAAA/wAAAP8AAAD/AAAA/wAAAP8AAAD/AAAA/wAAAP8AAAD/AAAA/wAAAP8AAAD/AAAA/wAAAP8AAAD/AwMD/xISEv8PDw//BgYG4wEBAV4AAAAEAAAAAAAAAAAAAAAAAAAAAAAAAAAAAAAAAAAAAAAAAAAAAAAAAAAAAAAAAAAAAAAAAAAAAAAAAAUAAAByAAAA8QAAAP8AAAD/AAAA/wAAAP8AAAD/AAAA/wAAAP8AAAD/AAAA/wAAAP8AAAD/AAAA/wAAAP8AAAD/AAAA/wAAAP8AAAD/AAAA/wAAAP8AAAD/AAAA/wAAAP8AAAD/AAAA/wAAAP8CAgL/Gxsb/ycnJ/8cHBz/ERER/wQEBPEAAAByAAAABQAAAAAAAAAAAAAAAAAAAAAAAAAAAAAAAAAAAAAAAAAAAAAAAAAAAAAAAAAAAAAABAAAAHIAAAD0AAAA/wAAAP8AAAD/AAAA/wAAAP8AAAD/AAAA/wAAAP8AAAD/AAAA/wAAAP8AAAD/AAAA/wAAAP8AAAD/AAAA/wAAAP8AAAD/AAAA/wAAAP8AAAD/AAAA/wAAAP8AAAD/AAAA/wAAAP8cHBz/PDw8/zQ0NP8pKSn/FBQU/wEBAf8AAAD0AAAAcgAAAAQAAAAAAAAAAAAAAAAAAAAAAAAAAAAAAAAAAAAAAAAAAAAAAAAAAAAAAAAAXgAAAPEAAAD/AAAA/wAAAP8AAAD/AAAA/wAAAP8AAAD/AAAA/wAAAP8AAAD/AAAA/wAAAP8AAAD/AAAA/wAAAP8AAAD/AAAA/wAAAP8AAAD/AAAA/wAAAP8AAAD/AAAA/wAAAP8AAAD/AAAA/xcXF/9NTU3/TExM/0JCQv8rKyv/BgYG/wAAAP8AAAD/AAAA8QAAAF4AAAAAAAAAAAAAAAAAAAAAAAAAAAAAAAAAAAAAAAAAAAAAAAAAAAA8AAAA4gAAAP8AAAD/AAAA/wAAAP8AAAD/AAAA/wAAAP8AAAD/AAAA/wAAAP8AAAD/AAAA/wAAAP8AAAD/AAAA/wAAAP8AAAD/AAAA/wAAAP8AAAD/AAAA/wAAAP8AAAD/AAAA/wAAAP8AAAD/Dg4O/1VVVf9kZGT/WVlZ/0ZGRv8RERH/AAAA/wAAAP8AAAD/AAAA/wAAAOIAAAA8AAAAAAAAAAAAAAAAAAAAAAAAAAAAAAAAAAAAAAAAABYAAAC/AAAA/wAAAP8AAAD/AAAA/wAAAP8AAAD/AAAA/wAAAP8AAAD/AAAA/wAAAP8AAAD/AAAA/wAAAP8AAAD/AAAA/wAAAP8AAAD/AAAA/wAAAP8AAAD/AAAA/wAAAP8AAAD/AAAA/wAAAP8GBgb/U1NT/3x8fP9xcXH/Y2Nj/yUlJf8AAAD/AAAA/wAAAP8AAAD/AAAA/wAAAP8AAAC/AAAAFgAAAAAAAAAAAAAAAAAAAAAAAAAAAAAAAAAAAH0AAAD+AAAA/wAAAP8AAAD/AAAA/wAAAP8AAAD/AAAA/wAAAP8AAAD/AAAA/wAAAP8AAAD/AAAA/wAAAP8AAAD/AAAA/wAAAP8AAAD/AAAA/wAAAP8AAAD/AAAA/wAAAP8AAAD/AAAA/wEBAf9ISEj/kJCQ/4mJif9+fn7/QkJC/wMDA/8AAAD/AAAA/wAAAP8AAAD/AAAA/wAAAP8AAAD+AAAAfQAAAAAAAAAAAAAAAAAAAAAAAAAAAAAALwAAAOIAAAD/AAAA/wAAAP8AAAD/AAAA/wAAAP8AAAD/AAAA/wAAAP8AAAD/AAAA/wAAAP8AAAD/AAAA/wAAAP8AAAD/AAAA/wAAAP8AAAD/AAAA/wAAAP8AAAD/AAAA/wAAAP8AAAD/AAAA/zU1Nf+enp7/oaGh/5eXl/9lZWX/CwsL/wAAAP8AAAD/AAAA/wAAAP8AAAD/AAAA/wAAAP8AAAD/AAAA4gAAAC8AAAAAAAAAAAAAAAAAAAACAAAAkQAAAP8AAAD/AAAA/wAAAP8AAAD/AAAA/wAAAP8AAAD/AAAA/wAAAP8AAAD/AAAA/wAAAP8AAAD/AAAA/wAAAP8AAAD/AAAA/wAAAP8AAAD/AAAA/wAAAP8AAAD/AAAA/wAAAP8AAAD/ISEh/6Ghof+6urr/r6+v/4uLi/8dHR3/AAAA/wAAAP8AAAD/AAAA/wAAAP8AAAD/AAAA/wAAAP8AAAD/AAAA/wAAAJEAAAACAAAAAAAAAAAAAAApAAAA4gAAAP8AAAD/AAAA/wAAAP8AAAD/AAAA/wAAAP8AAAD/AAAA/wAAAP8AAAD/WFhY/5mZmf+YmJj/XFxc/wAAAP8AAAD/AAAA/wAAAP8AAAD/AAAA/wAAAP8AAAD/AAAA/wAAAP8QEBD/lpaW/9LS0v/Gxsb/sLCw/zo6Ov8AAAD/AAAA/wAAAP8AAAD/AAAA/wAAAP8AAAD/AAAA/wAAAP8AAAD/AAAA/wAAAOEAAAApAAAAAAAAAAAAAABzAAAA/wAAAP8AAAD/AAAA/wAAAP8AAAD/AAAA/wAAAP8AAAD/AAAA/wAAAP8AAAD/lpaW////////////nZ2d/wAAAP8AAAD/AAAA/wAAAP8AAAD/AAAA/wAAAP8AAAD/AAAA/wUFBf+AgID/5+fn/93d3f/Q0ND/Y2Nj/wICAv8AAAD/AAAA/wAAAP8AAAD/AAAA/wAAAP8AAAD/AAAA/wAAAP8AAAD/AAAA/wAAAP8AAABzAAAAAAAAAA0AAAC8AAAA/wAAAP8AAAD/AAAA/wAAAP8AAAD/AAAA/wAAAP8AAAD/AAAA/wAAAP8AAAD/lpaW////////////nZ2d/wAAAP8AAAD/AAAA/wAAAP8AAAD/AAAA/wAAAP8AAAD/AAAA/1xcXP/x8fH/9vb2/+zs7P+Tk5P/DAwM/wAAAP8AAAD/AAAA/wAAAP8AAAD/AAAA/wAAAP8AAAD/AAAA/wAAAP8AAAD/AAAA/wAAAP8AAAC8AAAADQAAADcAAADpAAAA/wAAAP8AAAD/AAAA/wAAAP8AAAD/AAAA/wAAAP8AAAD/AAAA/wAAAP8AAAD/lpaW////////////nZ2d/wAAAP8AAAD/AAAA/wAAAP8AAAD/AAAA/wAAAP8AAAD/Nzc3/97e3v///////////8bGxv8hISH/AAAA/wAAAP8AAAD/AAAA/wAAAP8AAAD/AAAA/wAAAP8AAAD/AAAA/wAAAP8AAAD/AAAA/wAAAP8AAADpAAAANwAAAG8AAAD8AAAA/wAAAP8AAAD/AAAA/wAAAP8AAAD/AAAA/wAAAP8AAAD/AAAA/wAAAP8AAAD/lpaW////////////nZ2d/wAAAP8AAAD/AAAA/wAAAP8AAAD/AAAA/wAAAP8bGxv/v7+/////////////5ubm/0JCQv8AAAD/AAAA/wAAAP8AAAD/AAAA/wAAAP8AAAD/AAAA/wAAAP8AAAD/AAAA/wAAAP8AAAD/AAAA/wAAAP8AAAD8AAAAbwAAAKQAAAD/AAAA/wAAAP8AAAD/AAAA/wAAAP8AAAD/AAAA/wAAAP8AAAD/AAAA/wAAAP8AAAD/lpaW////////////nZ2d/wAAAP8AAAD/AAAA/wAAAP8AAAD/AAAA/wkJCf+YmJj////////////29vb/aWlp/wEBAf8CAgL/AwMD/wICAv8AAAD/AAAA/wAAAP8AAAD/AAAA/wAAAP8AAAD/AAAA/wAAAP8AAAD/AAAA/wAAAP8AAAD/AAAApAAAAM0AAAD/AAAA/wAAAP8AAAD/AAAA/wAAAP8AAAD/AAAA/wAAAP8AAAD/AAAA/wAAAP8AAAD/lpaW////////////nZ2d/wAAAP8AAAD/AAAA/wAAAP8AAAD/AQEB/25ubv/4+Pj///////////+UlJT/CAgI/wYGBv8SEhL/EhIS/w4ODv8BAQH/AAAA/wAAAP8AAAD/AAAA/wAAAP8AAAD/AAAA/wAAAP8AAAD/AAAA/wAAAP8AAAD/AAAAzAAAAOcAAAD/AAAA/wAAAP8AAAD/AAAA/wAAAP8AAAD/AAAA/wAAAP8AAAD/AAAA/wAAAP8AAAD/lpaW////////////nZ2d/wAAAP8AAAD/AAAA/wAAAP8AAAD/RUVF/+jo6P///////////7u7u/8YGBj/AAAA/w0NDf8kJCT/JCQk/x0dHf8CAgL/AAAA/wAAAP8AAAD/AAAA/wAAAP8AAAD/AAAA/wAAAP8AAAD/AAAA/wAAAP8AAAD/AAAA5wAAAPYAAAD/AAAA/wAAAP8AAAD/AAAA/wAAAP8AAAD/AAAA/wAAAP8AAAD/AAAA/wAAAP8AAAD/lpaW////////////nZ2d/wAAAP8AAAD/AAAA/wAAAP8lJSX/zs7O////////////29vb/zMzM/8AAAD/AAAA/xMTE/82Njb/Nzc3/ysrK/8DAwP/AAAA/wAAAP8AAAD/AAAA/wAAAP8AAAD/AAAA/wAAAP8AAAD/AAAA/wAAAP8AAAD/AAAA9gAAAP4AAAD/AAAA/wAAAP8AAAD/AAAA/wAAAP8AAAD/AAAA/wAAAP8AAAD/AAAA/wAAAP8AAAD/lpaW////////////nZ2d/wAAAP8AAAD/AAAA/w8PD/+qqqr////////////w8PD/VlZW/wAAAP8AAAD/AAAA/xoaGv9ISEj/SUlJ/zo6Ov8EBAT/AAAA/wAAAP8AAAD/AAAA/wAAAP8AAAD/AAAA/wAAAP8AAAD/AAAA/wAAAP8AAAD/AAAA/gAAAP4AAAD/AAAA/wAAAP8AAAD/AAAA/wAAAP8AAAD/AAAA/wAAAP8AAAD/AAAA/wAAAP8AAAD/lpaW////////////nZ2d/wAAAP8AAAD/AwMD/4CAgP/8/Pz///////z8/P+AgID/AwMD/wAAAP8AAAD/AAAA/yAgIP9aWlr/W1tb/0hISP8FBQX/AAAA/wAAAP8AAAD/AAAA/wAAAP8AAAD/AAAA/wAAAP8AAAD/AAAA/wAAAP8AAAD/AAAA/gAAAPYAAAD/AAAA/wAAAP8AAAD/AAAA/wAAAP8AAAD/AAAA/wAAAP8AAAD/AAAA/wAAAP8AAAD/lpaW////////////nZ2d/wAAAP8AAAD/VlZW//Dw8P///////////6mpqf8PDw//AAAA/wAAAP8AAAD/AAAA/yYmJv9sbGz/bm5u/1dXV/8GBgb/AAAA/wAAAP8AAAD/AAAA/wAAAP8AAAD/AAAA/wAAAP8AAAD/AAAA/wAAAP8AAAD/AAAA9gAAAOcAAAD/AAAA/wAAAP8AAAD/AAAA/wAAAP8AAAD/AAAA/wAAAP8AAAD/AAAA/wAAAP8AAAD/lpaW////////////nZ2d/wAAAP8yMjL/2tra////////////zc3N/yUlJf8AAAD/AAAA/wAAAP8AAAD/AAAA/y0tLf9+fn7/gICA/2VlZf8HBwf/AAAA/wAAAP8AAAD/AAAA/wAAAP8AAAD/AAAA/wAAAP8AAAD/AAAA/wAAAP8AAAD/AAAA5wAAAM0AAAD/AAAA/wAAAP8AAAD/AAAA/wAAAP8AAAD/AAAA/wAAAP8AAAD/AAAA/wAAAP8AAAD/lpaW////////////nJyc/xcXF/+6urr////////////n5+f/RUVF/wAAAP8AAAD/AAAA/wAAAP8AAAD/AAAA/zMzM/+QkJD/kpKS/3R0dP8ICAj/AAAA/wAAAP8AAAD/AAAA/wAAAP8AAAD/AAAA/wAAAP8AAAD/AAAA/wAAAP8AAAD/AAAAzQAAAKQAAAD/AAAA/wAAAP8AAAD/AAAA/wAAAP8AAAD/AAAA/wAAAP8AAAD/AAAA/wAAAP8AAAD/lpaW////////////pKSk/5KSkv/+/v7///////f39/9sbGz/AQEB/wAAAP8AAAD/AAAA/wAAAP8AAAD/AAAA/zo6Ov+ioqL/paWl/4KCgv8KCgr/AAAA/wAAAP8AAAD/AAAA/wAAAP8AAAD/AAAA/wAAAP8AAAD/AAAA/wAAAP8AAAD/AAAApAAAAG8AAAD8AAAA/wAAAP8AAAD/AAAA/wAAAP8AAAD/AAAA/wAAAP8AAAD/AAAA/wAAAP8AAAD/lpaW////////////6Ojo//T09P///////////5aWlv8JCQn/AAAA/wAAAP8AAAD/AAAA/wAAAP8AAAD/AAAA/0BAQP+0tLT/t7e3/5CQkP8LCwv/AAAA/wAAAP8AAAD/AAAA/wAAAP8AAAD/AAAA/wAAAP8AAAD/AAAA/wAAAP8AAAD8AAAAbwAAADcAAADpAAAA/wAAAP8AAAD/AAAA/wAAAP8AAAD/AAAA/wAAAP8AAAD/AAAA/wAAAP8AAAD/lpaW////////////////////////////vb29/xkZGf8AAAD/AAAA/wAAAP8AAAD/AAAA/wAAAP8AAAD/AAAA/0ZGRv/Gxsb/ycnJ/5+fn/8MDAz/AAAA/wAAAP8AAAD/AAAA/wAAAP8AAAD/AAAA/wAAAP8AAAD/AAAA/wAAAP8AAADpAAAANwAAAA0AAAC8AAAA/wAAAP8AAAD/AAAA/wAAAP8AAAD/AAAA/wAAAP8AAAD/AAAA/wAAAP8AAAD/lpaW///////////////////////c3Nz/NDQ0/wAAAP8AAAD/AAAA/wAAAP8AAAD/AAAA/wAAAP8AAAD/AAAA/01NTf/Y2Nj/3Nzc/62trf8NDQ3/AAAA/wAAAP8AAAD/AAAA/wAAAP8AAAD/AAAA/wAAAP8AAAD/AAAA/wAAAP8AAAC8AAAADQAAAAAAAABzAAAA/wAAAP8AAAD/AAAA/wAAAP8AAAD/AAAA/wAAAP8AAAD/AAAA/wAAAP8AAAD/lpaW//////////////////Hx8f9ZWVn/AAAA/wAAAP8AAAD/AAAA/wAAAP8AAAD/AAAA/wAAAP8AAAD/AAAA/1VVVf/v7+//8/Pz/7+/v/8ODg7/AAAA/wAAAP8AAAD/AAAA/wAAAP8AAAD/AAAA/wAAAP8AAAD/AAAA/wAAAP8AAABzAAAAAAAAAAAAAAApAAAA4QAAAP8AAAD/AAAA/wAAAP8AAAD/AAAA/wAAAP8AAAD/AAAA/wAAAP8AAAD/WFhY/5mZmf+Wlpb/mJiY/2ZmZv8FBQX/AAAA/wAAAP8AAAD/AAAA/wAAAP8AAAD/AAAA/wAAAP8AAAD/AAAA/zQ0NP+SkpL/lJSU/3V1df8JCQn/AAAA/wAAAP8AAAD/AAAA/wAAAP8AAAD/AAAA/wAAAP8AAAD/AAAA/wAAAOIAAAApAAAAAAAAAAAAAAACAAAAkQAAAP8AAAD/AAAA/wAAAP8AAAD/AAAA/wAAAP8AAAD/AAAA/wAAAP8AAAD/AAAA/wAAAP8AAAD/AAAA/wAAAP8AAAD/AAAA/wAAAP8AAAD/AAAA/wAAAP8AAAD/AAAA/wAAAP8AAAD/AAAA/wAAAP8AAAD/AAAA/wAAAP8AAAD/AAAA/wAAAP8AAAD/AAAA/wAAAP8AAAD/AAAA/wAAAP8AAAD/AAAA/wAAAJEAAAACAAAAAAAAAAAAAAAAAAAALwAAAOIAAAD/AAAA/wAAAP8AAAD/AAAA/wAAAP8AAAD/AAAA/wAAAP8AAAD/AAAA/wAAAP8AAAD/AAAA/wAAAP8AAAD/AAAA/wAAAP8AAAD/AAAA/wAAAP8AAAD/AAAA/wAAAP8AAAD/AAAA/wAAAP8AAAD/AAAA/wAAAP8AAAD/AAAA/wAAAP8AAAD/AAAA/wAAAP8AAAD/AAAA/wAAAP8AAAD/AAAA4gAAAC8AAAAAAAAAAAAAAAAAAAAAAAAAAAAAAH0AAAD+AAAA/wAAAP8AAAD/AAAA/wAAAP8AAAD/AAAA/wAAAP8AAAD/AAAA/wAAAP8AAAD/AAAA/wAAAP8AAAD/AAAA/wAAAP8AAAD/AAAA/wAAAP8AAAD/AAAA/wAAAP8AAAD/AAAA/wAAAP8AAAD/AAAA/wAAAP8AAAD/AAAA/wAAAP8AAAD/AAAA/wAAAP8AAAD/AAAA/wAAAP8AAAD+AAAAfQAAAAAAAAAAAAAAAAAAAAAAAAAAAAAAAAAAABcAAAC/AAAA/wAAAP8AAAD/AAAA/wAAAP8AAAD/AAAA/wAAAP8AAAD/AAAA/wAAAP8AAAD/AAAA/wAAAP8AAAD/AAAA/wAAAP8AAAD/AAAA/wAAAP8AAAD/AAAA/wAAAP8AAAD/AAAA/wAAAP8AAAD/AAAA/wAAAP8AAAD/AAAA/wAAAP8AAAD/AAAA/wAAAP8AAAD/AAAA/wAAAP8AAAC+AAAAFgAAAAAAAAAAAAAAAAAAAAAAAAAAAAAAAAAAAAAAAAA8AAAA4gAAAP8AAAD/AAAA/wAAAP8AAAD/AAAA/wAAAP8AAAD/AAAA/wAAAP8AAAD/AAAA/wAAAP8AAAD/AAAA/wAAAP8AAAD/AAAA/wAAAP8AAAD/AAAA/wAAAP8AAAD/AAAA/wAAAP8AAAD/AAAA/wAAAP8AAAD/AAAA/wAAAP8AAAD/AAAA/wAAAP8AAAD/AAAA/wAAAOIAAAA8AAAAAAAAAAAAAAAAAAAAAAAAAAAAAAAAAAAAAAAAAAAAAAAAAAAAXgAAAPEAAAD/AAAA/wAAAP8AAAD/AAAA/wAAAP8AAAD/AAAA/wAAAP8AAAD/AAAA/wAAAP8AAAD/AAAA/wAAAP8AAAD/AAAA/wAAAP8AAAD/AAAA/wAAAP8AAAD/AAAA/wAAAP8AAAD/AAAA/wAAAP8AAAD/AAAA/wAAAP8AAAD/AAAA/wAAAP8AAAD/AAAA8QAAAF4AAAAAAAAAAAAAAAAAAAAAAAAAAAAAAAAAAAAAAAAAAAAAAAAAAAAAAAAABAAAAHIAAAD0AAAA/wAAAP8AAAD/AAAA/wAAAP8AAAD/AAAA/wAAAP8AAAD/AAAA/wAAAP8AAAD/AAAA/wAAAP8AAAD/AAAA/wAAAP8AAAD/AAAA/wAAAP8AAAD/AAAA/wAAAP8AAAD/AAAA/wAAAP8AAAD/AAAA/wAAAP8AAAD/AAAA/wAAAP8AAAD0AAAAcgAAAAMAAAAAAAAAAAAAAAAAAAAAAAAAAAAAAAAAAAAAAAAAAAAAAAAAAAAAAAAAAAAAAAUAAAByAAAA8QAAAP8AAAD/AAAA/wAAAP8AAAD/AAAA/wAAAP8AAAD/AAAA/wAAAP8AAAD/AAAA/wAAAP8AAAD/AAAA/wAAAP8AAAD/AAAA/wAAAP8AAAD/AAAA/wAAAP8AAAD/AAAA/wAAAP8AAAD/AAAA/wAAAP8AAAD/AAAA/wAAAPEAAAByAAAABQAAAAAAAAAAAAAAAAAAAAAAAAAAAAAAAAAAAAAAAAAAAAAAAAAAAAAAAAAAAAAAAAAAAAAAAAAEAAAAXgAAAOMAAAD/AAAA/wAAAP8AAAD/AAAA/wAAAP8AAAD/AAAA/wAAAP8AAAD/AAAA/wAAAP8AAAD/AAAA/wAAAP8AAAD/AAAA/wAAAP8AAAD/AAAA/wAAAP8AAAD/AAAA/wAAAP8AAAD/AAAA/wAAAP8AAAD/AAAA4wAAAF4AAAAEAAAAAAAAAAAAAAAAAAAAAAAAAAAAAAAAAAAAAAAAAAAAAAAAAAAAAAAAAAAAAAAAAAAAAAAAAAAAAAAAAAAAAQAAADsAAADAAAAA/QAAAP8AAAD/AAAA/wAAAP8AAAD/AAAA/wAAAP8AAAD/AAAA/wAAAP8AAAD/AAAA/wAAAP8AAAD/AAAA/wAAAP8AAAD/AAAA/wAAAP8AAAD/AAAA/wAAAP8AAAD/AAAA/wAAAP0AAADAAAAAOwAAAAEAAAAAAAAAAAAAAAAAAAAAAAAAAAAAAAAAAAAAAAAAAAAAAAAAAAAAAAAAAAAAAAAAAAAAAAAAAAAAAAAAAAAAAAAAAAAAAAAAAAAWAAAAfQAAAOMAAAD/AAAA/wAAAP8AAAD/AAAA/wAAAP8AAAD/AAAA/wAAAP8AAAD/AAAA/wAAAP8AAAD/AAAA/wAAAP8AAAD/AAAA/wAAAP8AAAD/AAAA/wAAAP8AAAD/AAAA4wAAAH0AAAAWAAAAAAAAAAAAAAAAAAAAAAAAAAAAAAAAAAAAAAAAAAAAAAAAAAAAAAAAAAAAAAAAAAAAAAAAAAAAAAAAAAAAAAAAAAAAAAAAAAAAAAAAAAAAAAAAAAAAAgAAAC4AAACRAAAA4wAAAP4AAAD/AAAA/wAAAP8AAAD/AAAA/wAAAP8AAAD/AAAA/wAAAP8AAAD/AAAA/wAAAP8AAAD/AAAA/wAAAP8AAAD/AAAA/gAAAOIAAACSAAAALgAAAAIAAAAAAAAAAAAAAAAAAAAAAAAAAAAAAAAAAAAAAAAAAAAAAAAAAAAAAAAAAAAAAAAAAAAAAAAAAAAAAAAAAAAAAAAAAAAAAAAAAAAAAAAAAAAAAAAAAAAAAAAAAAAAAAAAAAADAAAAKAAAAHMAAAC8AAAA6gAAAPwAAAD/AAAA/wAAAP8AAAD/AAAA/wAAAP8AAAD/AAAA/wAAAP8AAAD/AAAA/AAAAOoAAAC8AAAAcwAAACgAAAADAAAAAAAAAAAAAAAAAAAAAAAAAAAAAAAAAAAAAAAAAAAAAAAAAAAAAAAAAAAAAAAAAAAAAAAAAAAAAAAAAAAAAAAAAAAAAAAAAAAAAAAAAAAAAAAAAAAAAAAAAAAAAAAAAAAAAAAAAAAAAAAAAAAAAAAAAAAAAAANAAAANwAAAG8AAACkAAAAzQAAAOcAAAD2AAAA/gAAAP4AAAD2AAAA5wAAAM0AAACkAAAAbwAAADcAAAANAAAAAAAAAAAAAAAAAAAAAAAAAAAAAAAAAAAAAAAAAAAAAAAAAAAAAAAAAAAAAAAAAAAAAAAAAAAAAAAAAAAAAP//4Af//wAA//8AAP//AAD/+AAAH/8AAP/wAAAP/wAA/8AAAAP/AAD/gAAAAf8AAP8AAAAA/wAA/gAAAAB/AAD8AAAAAD8AAPgAAAAAHwAA8AAAAAAPAADwAAAAAA8AAOAAAAAABwAAwAAAAAADAADAAAAAAAMAAMAAAAAAAwAAgAAAAAABAACAAAAAAAEAAIAAAAAAAQAAAAAAAAAAAAAAAAAAAAAAAAAAAAAAAAAAAAAAAAAAAAAAAAAAAAAAAAAAAAAAAAAAAAAAAAAAAAAAAAAAAAAAAAAAAAAAAAAAAAAAAAAAAACAAAAAAAEAAIAAAAAAAQAAgAAAAAABAADAAAAAAAMAAMAAAAAAAwAAwAAAAAADAADgAAAAAAcAAPAAAAAADwAA8AAAAAAPAAD4AAAAAB8AAPwAAAAAPwAA/gAAAAB/AAD/AAAAAP8AAP+AAAAB/wAA/8AAAAP/AAD/8AAAD/8AAP/4AAAf/wAA//8AAP//AAD//+AH//8AACgAAAAgAAAAQAAAAAEAIAAAAAAAABAAAAAAAAAAAAAAAAAAAAAAAAAAAAAAAAAAAAAAAAAAAAAAAAAAAAAAAAAAAAAAAAAAAAAAAAAAAAAEAAAAKQAAAG0AAACtAAAA2gAAAPIAAAD9AAAA/QAAAPIAAADaAAAArQAAAGwAAAApAAAABAAAAAAAAAAAAAAAAAAAAAAAAAAAAAAAAAAAAAAAAAAAAAAAAAAAAAAAAAAAAAAAAAAAAAAAAAAAAAAAAAAAAAAAAAADAAAANwAAAJgAAADfAAAA+wAAAP8AAAD/AAAA/wAAAP8AAAD/AAAA/wAAAP8AAAD/AAAA+wAAAN8AAACYAAAANwAAAAMAAAAAAAAAAAAAAAAAAAAAAAAAAAAAAAAAAAAAAAAAAAAAAAAAAAAAAAAAAAAAAAAAAAAAAAAAGgAAAIoAAADqAAAA/wAAAP8AAAD/AAAA/wAAAP8AAAD/AAAA/wAAAP8AAAD/AAAA/wAAAP8AAAD/AAAA/wAAAP8AAADqAQEBigEBARoAAAAAAAAAAAAAAAAAAAAAAAAAAAAAAAAAAAAAAAAAAAAAAAAAAAAAAAAAAAAAADYAAADDAAAA/gAAAP8AAAD/AAAA/wAAAP8AAAD/AAAA/wAAAP8AAAD/AAAA/wAAAP8AAAD/AAAA/wAAAP8AAAD/AAAA/wICAv8NDQ3+CAgIwgICAjYAAAAAAAAAAAAAAAAAAAAAAAAAAAAAAAAAAAAAAAAAAAAAAAAAAABBAAAA2QAAAP8AAAD/AAAA/wAAAP8AAAD/AAAA/wAAAP8AAAD/AAAA/wAAAP8AAAD/AAAA/wAAAP8AAAD/AAAA/wAAAP8BAQH/HBwc/ycnJ/8VFRX/AwMD2QAAAEEAAAAAAAAAAAAAAAAAAAAAAAAAAAAAAAAAAAAAAAAANgAAANkAAAD/AAAA/wAAAP8AAAD/AAAA/wAAAP8AAAD/AAAA/wAAAP8AAAD/AAAA/wAAAP8AAAD/AAAA/wAAAP8AAAD/AAAA/x8fH/9HR0f/Ojo6/xMTE/8AAAD/AAAA2QAAADYAAAAAAAAAAAAAAAAAAAAAAAAAAAAAABoAAADCAAAA/wAAAP8AAAD/AAAA/wAAAP8AAAD/AAAA/wAAAP8AAAD/AAAA/wAAAP8AAAD/AAAA/wAAAP8AAAD/AAAA/wAAAP8ZGRn/X19f/2BgYP8wMDD/AgIC/wAAAP8AAAD/AAAAwgAAABoAAAAAAAAAAAAAAAAAAAACAAAAigAAAP8AAAD/AAAA/wAAAP8AAAD/AAAA/wAAAP8AAAD/AAAA/wAAAP8AAAD/AAAA/wAAAP8AAAD/AAAA/wAAAP8AAAD/Dw8P/2tra/+Ghob/V1dX/woKCv8AAAD/AAAA/wAAAP8AAAD/AAAAigAAAAIAAAAAAAAAAAAAADgAAADpAAAA/wAAAP8AAAD/AAAA/wAAAP8AAAD/AAAA/wAAAP8AAAD/AAAA/wAAAP8AAAD/AAAA/wAAAP8AAAD/AAAA/wYGBv9paWn/qKio/4ODg/8dHR3/AAAA/wAAAP8AAAD/AAAA/wAAAP8AAADpAAAAOAAAAAAAAAADAAAAlwAAAP8AAAD/AAAA/wAAAP8AAAD/AAAA/wAAAP8rKyv/a2tr/0tLS/8DAwP/AAAA/wAAAP8AAAD/AAAA/wAAAP8AAAD/WVlZ/8XFxf+ysrL/PT09/wAAAP8AAAD/AAAA/wAAAP8AAAD/AAAA/wAAAP8AAACXAAAAAwAAACoAAADfAAAA/wAAAP8AAAD/AAAA/wAAAP8AAAD/AAAA/2lpaf//////t7e3/wYGBv8AAAD/AAAA/wAAAP8AAAD/AAAA/0BAQP/X19f/39/f/2xsbP8DAwP/AAAA/wAAAP8AAAD/AAAA/wAAAP8AAAD/AAAA/wAAAN4AAAAqAAAAbQAAAPsAAAD/AAAA/wAAAP8AAAD/AAAA/wAAAP8AAAD/aWlp//////+3t7f/BgYG/wAAAP8AAAD/AAAA/wAAAP8iIiL/ysrK//////+lpaX/Dw8P/wAAAP8AAAD/AAAA/wAAAP8AAAD/AAAA/wAAAP8AAAD/AAAA+wAAAG0AAACtAAAA/wAAAP8AAAD/AAAA/wAAAP8AAAD/AAAA/wAAAP9paWn//////7e3t/8GBgb/AAAA/wAAAP8AAAD/DQ0N/6Wlpf//////0dHR/ygoKP8AAAD/AAAA/wAAAP8AAAD/AAAA/wAAAP8AAAD/AAAA/wAAAP8AAAD/AAAArQAAANkAAAD/AAAA/wAAAP8AAAD/AAAA/wAAAP8AAAD/AAAA/2lpaf//////t7e3/wYGBv8AAAD/AAAA/wICAv97e3v//Pz8/+rq6v9JSUn/BQUF/w4ODv8ICAj/AAAA/wAAAP8AAAD/AAAA/wAAAP8AAAD/AAAA/wAAAP8AAADZAAAA8gAAAP8AAAD/AAAA/wAAAP8AAAD/AAAA/wAAAP8AAAD/aWlp//////+3t7f/BgYG/wAAAP8AAAD/UVFR/+7u7v/6+vr/cXFx/wEBAf8WFhb/Kioq/xcXF/8AAAD/AAAA/wAAAP8AAAD/AAAA/wAAAP8AAAD/AAAA/wAAAPIAAAD9AAAA/wAAAP8AAAD/AAAA/wAAAP8AAAD/AAAA/wAAAP9paWn//////7e3t/8GBgb/AAAA/y4uLv/X19f//////5ubm/8KCgr/AAAA/yUlJf9GRkb/JiYm/wAAAP8AAAD/AAAA/wAAAP8AAAD/AAAA/wAAAP8AAAD/AAAA/QAAAP0AAAD/AAAA/wAAAP8AAAD/AAAA/wAAAP8AAAD/AAAA/2lpaf//////t7e3/wUFBf8UFBT/tra2///////CwsL/HBwc/wAAAP8AAAD/NDQ0/2JiYv82Njb/AAAA/wAAAP8AAAD/AAAA/wAAAP8AAAD/AAAA/wAAAP8AAAD9AAAA8gAAAP8AAAD/AAAA/wAAAP8AAAD/AAAA/wAAAP8AAAD/aWlp//////+2trb/DAwM/4yMjP//////4ODg/zg4OP8AAAD/AAAA/wAAAP9DQ0P/fn5+/0VFRf8AAAD/AAAA/wAAAP8AAAD/AAAA/wAAAP8AAAD/AAAA/wAAAPIAAADZAAAA/wAAAP8AAAD/AAAA/wAAAP8AAAD/AAAA/wAAAP9paWn//////7a2tv9oaGj/9fX1//T09P9eXl7/AAAA/wAAAP8AAAD/AAAA/1JSUv+ampr/VVVV/wAAAP8AAAD/AAAA/wAAAP8AAAD/AAAA/wAAAP8AAAD/AAAA2QAAAK0AAAD/AAAA/wAAAP8AAAD/AAAA/wAAAP8AAAD/AAAA/2lpaf//////4uLi/+bm5v/+/v7/h4eH/wUFBf8AAAD/AAAA/wAAAP8AAAD/YWFh/7a2tv9kZGT/AAAA/wAAAP8AAAD/AAAA/wAAAP8AAAD/AAAA/wAAAP8AAACsAAAAbQAAAPsAAAD/AAAA/wAAAP8AAAD/AAAA/wAAAP8AAAD/aWlp/////////////////7Gxsf8SEhL/AAAA/wAAAP8AAAD/AAAA/wAAAP9wcHD/0tLS/3R0dP8AAAD/AAAA/wAAAP8AAAD/AAAA/wAAAP8AAAD/AAAA+wAAAGwAAAAqAAAA3wAAAP8AAAD/AAAA/wAAAP8AAAD/AAAA/wAAAP9paWn////////////T09P/Kioq/wAAAP8AAAD/AAAA/wAAAP8AAAD/AAAA/39/f//w8PD/hISE/wAAAP8AAAD/AAAA/wAAAP8AAAD/AAAA/wAAAP8AAADeAAAAKgAAAAMAAACXAAAA/wAAAP8AAAD/AAAA/wAAAP8AAAD/AAAA/ysrK/9paWn/ampq/zY2Nv8AAAD/AAAA/wAAAP8AAAD/AAAA/wAAAP8AAAD/ODg4/2lpaf86Ojr/AAAA/wAAAP8AAAD/AAAA/wAAAP8AAAD/AAAA/wAAAJcAAAADAAAAAAAAADgAAADpAAAA/wAAAP8AAAD/AAAA/wAAAP8AAAD/AAAA/wAAAP8AAAD/AAAA/wAAAP8AAAD/AAAA/wAAAP8AAAD/AAAA/wAAAP8AAAD/AAAA/wAAAP8AAAD/AAAA/wAAAP8AAAD/AAAA/wAAAP8AAADpAAAAOAAAAAAAAAAAAAAAAgAAAIoAAAD/AAAA/wAAAP8AAAD/AAAA/wAAAP8AAAD/AAAA/wAAAP8AAAD/AAAA/wAAAP8AAAD/AAAA/wAAAP8AAAD/AAAA/wAAAP8AAAD/AAAA/wAAAP8AAAD/AAAA/wAAAP8AAAD/AAAA/wAAAIoAAAACAAAAAAAAAAAAAAAAAAAAGgAAAMIAAAD/AAAA/wAAAP8AAAD/AAAA/wAAAP8AAAD/AAAA/wAAAP8AAAD/AAAA/wAAAP8AAAD/AAAA/wAAAP8AAAD/AAAA/wAAAP8AAAD/AAAA/wAAAP8AAAD/AAAA/wAAAP8AAADCAAAAGgAAAAAAAAAAAAAAAAAAAAAAAAAAAAAANgAAANkAAAD/AAAA/wAAAP8AAAD/AAAA/wAAAP8AAAD/AAAA/wAAAP8AAAD/AAAA/wAAAP8AAAD/AAAA/wAAAP8AAAD/AAAA/wAAAP8AAAD/AAAA/wAAAP8AAAD/AAAA2QAAADYAAAAAAAAAAAAAAAAAAAAAAAAAAAAAAAAAAAAAAAAAQQAAANkAAAD/AAAA/wAAAP8AAAD/AAAA/wAAAP8AAAD/AAAA/wAAAP8AAAD/AAAA/wAAAP8AAAD/AAAA/wAAAP8AAAD/AAAA/wAAAP8AAAD/AAAA/wAAANkAAABBAAAAAAAAAAAAAAAAAAAAAAAAAAAAAAAAAAAAAAAAAAAAAAAAAAAANgAAAMMAAAD+AAAA/wAAAP8AAAD/AAAA/wAAAP8AAAD/AAAA/wAAAP8AAAD/AAAA/wAAAP8AAAD/AAAA/wAAAP8AAAD/AAAA/wAAAP4AAADDAAAANgAAAAAAAAAAAAAAAAAAAAAAAAAAAAAAAAAAAAAAAAAAAAAAAAAAAAAAAAAAAAAAGgAAAIoAAADqAAAA/wAAAP8AAAD/AAAA/wAAAP8AAAD/AAAA/wAAAP8AAAD/AAAA/wAAAP8AAAD/AAAA/wAAAP8AAADqAAAAigAAABoAAAAAAAAAAAAAAAAAAAAAAAAAAAAAAAAAAAAAAAAAAAAAAAAAAAAAAAAAAAAAAAAAAAAAAAAAAwAAADcAAACYAAAA3wAAAPsAAAD/AAAA/wAAAP8AAAD/AAAA/wAAAP8AAAD/AAAA/wAAAPsAAADfAAAAmAAAADcAAAADAAAAAAAAAAAAAAAAAAAAAAAAAAAAAAAAAAAAAAAAAAAAAAAAAAAAAAAAAAAAAAAAAAAAAAAAAAAAAAAAAAAAAAAAAAQAAAApAAAAbQAAAK0AAADaAAAA8gAAAP0AAAD9AAAA8gAAANoAAACtAAAAbQAAACkAAAAEAAAAAAAAAAAAAAAAAAAAAAAAAAAAAAAAAAAAAAAAAAAAAAAA//AP//+AAf/+AAB//AAAP/gAAB/wAAAP4AAAB8AAAAPAAAADgAAAAYAAAAGAAAABAAAAAAAAAAAAAAAAAAAAAAAAAAAAAAAAAAAAAAAAAACAAAABgAAAAYAAAAHAAAADwAAAA+AAAAfwAAAP+AAAH/wAAD/+AAB//4AB///wD/8oAAAAEAAAACAAAAABACAAAAAAAAAEAAAAAAAAAAAAAAAAAAAAAAAAAAAAAAAAAAAAAAAAAAAABwAAAEkAAACoAAAA5AAAAPsAAAD7AAAA5AAAAKgAAABJAAAABwAAAAAAAAAAAAAAAAAAAAAAAAAAAAAAGAAAAJIAAADvAAAA/wAAAP8AAAD/AAAA/wAAAP8AAAD/AgIC7woKCpIFBQUYAAAAAAAAAAAAAAAAAAAAGAAAALEAAAD/AAAA/wAAAP8AAAD/AAAA/wAAAP8AAAD/AQEB/yIiIv8gICD/AQEBsQAAABgAAAAAAAAABgAAAJIAAAD/AAAA/wAAAP8AAAD/AAAA/wAAAP8AAAD/AAAA/ywsLP9dXV3/FBQU/wAAAP8AAACSAAAABgAAAEkAAADtAAAA/wAAAP8RERH/MTEx/wQEBP8AAAD/AAAA/yUlJf+Tk5P/PT09/wAAAP8AAAD/AAAA7QAAAEkAAACnAAAA/wAAAP8AAAD/QEBA/729vf8QEBD/AAAA/xMTE/+srKz/f39//wQEBP8AAAD/AAAA/wAAAP8AAACnAAAA4wAAAP8AAAD/AAAA/0NDQ//ExMT/EBAQ/wQEBP+Li4v/tra2/xoaGv8BAQH/AAAA/wAAAP8AAAD/AAAA4wAAAPsAAAD/AAAA/wAAAP9DQ0P/xMTE/xAQEP9fX1//zc3N/zAwMP8kJCT/EhIS/wAAAP8AAAD/AAAA/wAAAPsAAAD7AAAA/wAAAP8AAAD/Q0ND/8LCwv9KSkr/z8/P/1JSUv8CAgL/Tk5O/yQkJP8AAAD/AAAA/wAAAP8AAAD7AAAA4wAAAP8AAAD/AAAA/0FBQf/Z2dn/zc3N/3t7e/8CAgL/BQUF/3Z2dv82Njb/AAAA/wAAAP8AAAD/AAAA4wAAAKcAAAD/AAAA/wAAAP89PT3/7u7u/6Ojo/8NDQ3/AAAA/wYGBv+Wlpb/RUVF/wAAAP8AAAD/AAAA/wAAAKcAAABJAAAA7QAAAP8AAAD/EBAQ/zw8PP8WFhb/AAAA/wAAAP8CAgL/LCws/xQUFP8AAAD/AAAA/wAAAO0AAABJAAAABgAAAJIAAAD/AAAA/wAAAP8AAAD/AAAA/wAAAP8AAAD/AAAA/wAAAP8AAAD/AAAA/wAAAP8AAACSAAAABgAAAAAAAAAYAAAAsQAAAP8AAAD/AAAA/wAAAP8AAAD/AAAA/wAAAP8AAAD/AAAA/wAAAP8AAACxAAAAGAAAAAAAAAAAAAAAAAAAABgAAACSAAAA7wAAAP8AAAD/AAAA/wAAAP8AAAD/AAAA/wAAAO8AAACSAAAAGAAAAAAAAAAAAAAAAAAAAAAAAAAAAAAABwAAAEkAAACoAAAA5AAAAPsAAAD7AAAA5AAAAKgAAABJAAAABwAAAAAAAAAAAAAAAPgfAADgBwAAwAMAAIABAACAAQAAAAAAAAAAAAAAAAAAAAAAAAAAAAAAAAAAgAEAAIABAADAAwAA4AcAAPgfAAA=;" vertex="1" parent="F9HI7wHAPyrDihpn8WOm-41">
          <mxGeometry x="92.82" y="66.49" width="38.34" height="38.34" as="geometry" />
        </mxCell>
        <mxCell id="F9HI7wHAPyrDihpn8WOm-55" value="" style="edgeStyle=orthogonalEdgeStyle;rounded=0;orthogonalLoop=1;jettySize=auto;html=1;entryX=0;entryY=0.5;entryDx=0;entryDy=0;startArrow=none;startFill=0;" edge="1" parent="1" source="F9HI7wHAPyrDihpn8WOm-44" target="F9HI7wHAPyrDihpn8WOm-41">
          <mxGeometry relative="1" as="geometry" />
        </mxCell>
        <mxCell id="F9HI7wHAPyrDihpn8WOm-44" value="user" style="sketch=0;outlineConnect=0;gradientColor=none;fontColor=#545B64;strokeColor=none;fillColor=#879196;dashed=0;verticalLabelPosition=bottom;verticalAlign=top;align=center;html=1;fontSize=12;fontStyle=0;aspect=fixed;shape=mxgraph.aws4.illustration_users;pointerEvents=1" vertex="1" parent="1">
          <mxGeometry x="20" y="203.34" width="62" height="62" as="geometry" />
        </mxCell>
      </root>
    </mxGraphModel>
  </diagram>
</mxfile>
